<svg viewBox="0 0 19 18" fill="none" xmlns="http://www.w3.org/2000/svg">
<path d="M9.75 10.5557C12.1222 10.5557 14.2211 11.0084 15.6895 11.6973C17.2372 12.4234 17.75 13.2289 17.75 13.7783C17.7498 14.4746 17.3705 15.2354 16.1396 15.877C14.8755 16.5358 12.8084 17 9.75 17C6.69161 17 4.62454 16.5358 3.36035 15.877C2.12952 15.2354 1.75016 14.4746 1.75 13.7783C1.75 13.2289 2.26284 12.4234 3.81055 11.6973C5.27885 11.0084 7.37782 10.5557 9.75 10.5557ZM9.75 1C11.234 1 12.5684 2.4463 12.5684 4.00977C12.5683 5.52535 11.2793 6.875 9.75 6.875C8.2207 6.875 6.9317 5.52535 6.93164 4.00977C6.93164 2.4463 8.26601 1 9.75 1Z" stroke="currentColor" stroke-width="2"/>
</svg>
