<svg viewBox="0 0 273 173" fill="none" xmlns="http://www.w3.org/2000/svg">
<path d="M7.72467 146.443C5.60067 146.443 4.00767 145.263 2.94567 142.903C2.00167 140.543 1.52967 137.829 1.52967 134.761C1.52967 131.693 2.00167 128.979 2.94567 126.619C4.00767 124.259 5.60067 123.079 7.72467 123.079C5.48267 123.079 3.77167 122.194 2.59167 120.424C1.52967 118.654 0.998671 116.589 0.998671 114.229C0.998671 111.869 1.52967 109.804 2.59167 108.034C3.77167 106.264 5.48267 105.379 7.72467 105.379C5.24667 105.379 3.35867 104.789 2.06067 103.609C0.880671 102.311 0.290671 100.895 0.290671 99.361C0.290671 97.827 0.880671 96.47 2.06067 95.29C3.35867 93.992 5.24667 93.343 7.72467 93.343C5.12867 93.343 3.35867 92.753 2.41467 91.573C1.58867 90.393 1.58867 89.213 2.41467 88.033C3.35867 86.853 5.12867 86.263 7.72467 86.263C5.83667 86.263 4.36167 85.437 3.29967 83.785C2.35567 82.015 1.88367 80.009 1.88367 77.767C1.88367 75.525 2.35567 73.578 3.29967 71.926C4.36167 70.156 5.83667 69.271 7.72467 69.271C5.24667 69.271 3.35867 68.386 2.06067 66.616C0.880671 64.846 0.290671 62.781 0.290671 60.421C0.290671 58.061 0.880671 55.996 2.06067 54.226C3.35867 52.456 5.24667 51.571 7.72467 51.571C6.30867 49.565 5.71867 47.972 5.95467 46.792C6.30867 45.612 7.07567 45.081 8.25567 45.199C9.55367 45.317 10.9107 46.379 12.3267 48.385C12.3267 45.789 13.0347 44.078 14.4507 43.252C15.9847 42.426 17.5187 42.426 19.0527 43.252C20.5867 44.078 21.3537 45.789 21.3537 48.385C21.5897 46.615 22.5927 45.376 24.3627 44.668C26.1327 43.96 28.1387 43.724 30.3807 43.96C32.7407 44.196 34.6877 44.845 36.2217 45.907C37.8737 46.969 38.6407 48.326 38.5227 49.978C39.1127 47.854 40.2337 46.497 41.8857 45.907C43.6557 45.317 45.3667 45.435 47.0187 46.261C48.6707 46.969 49.6737 48.149 50.0277 49.801C50.8537 48.031 52.3877 46.615 54.6297 45.553C56.9897 44.373 59.3497 43.783 61.7097 43.783C64.0697 43.783 65.6037 44.786 66.3117 46.792C66.5477 44.196 67.4327 42.308 68.9667 41.128C70.6187 39.948 72.3887 39.476 74.2767 39.712C76.2827 39.83 77.9347 40.656 79.2327 42.19C80.5307 43.606 81.0617 45.612 80.8257 48.208C81.8877 47.028 83.5397 46.91 85.7817 47.854C88.0237 48.798 90.2657 50.273 92.5077 52.279C94.7497 54.167 96.4607 56.173 97.6407 58.297C98.8207 60.421 98.9387 62.073 97.9947 63.253C100.119 62.781 101.889 63.43 103.305 65.2C104.839 66.97 105.901 69.212 106.491 71.926C107.081 74.522 107.022 76.941 106.314 79.183C105.724 81.425 104.367 82.782 102.243 83.254C104.013 83.254 105.311 84.08 106.137 85.732C107.081 87.384 107.494 89.331 107.376 91.573C107.376 93.697 106.904 95.585 105.96 97.237C105.134 98.771 103.836 99.538 102.066 99.538C104.426 100.246 105.901 101.662 106.491 103.786C107.199 105.91 107.199 108.211 106.491 110.689C105.901 113.167 104.78 115.173 103.128 116.707C101.476 118.241 99.4697 118.654 97.1097 117.946C98.9977 119.598 100.001 121.368 100.119 123.256C100.237 125.026 99.7057 126.56 98.5257 127.858C97.4637 129.038 95.9887 129.746 94.1007 129.982C92.3307 130.1 90.5017 129.333 88.6137 127.681C89.0857 129.451 88.2597 131.103 86.1357 132.637C84.0117 134.053 81.4157 135.115 78.3477 135.823C75.2797 136.531 72.4477 136.708 69.8517 136.354C67.2557 136 65.7217 134.938 65.2497 133.168C64.4237 134.938 63.0077 135.882 61.0017 136C59.1137 136.236 57.1667 135.882 55.1607 134.938C53.2727 133.994 51.7977 132.755 50.7357 131.221C50.1457 132.283 49.3197 133.109 48.2577 133.699C47.1957 134.289 46.0157 134.525 44.7177 134.407C45.8977 136.295 46.5467 138.773 46.6647 141.841C46.7827 144.909 46.3697 147.623 45.4257 149.983C44.5997 152.461 43.1837 153.7 41.1777 153.7C43.7737 153.464 45.7797 153.936 47.1957 155.116C48.6117 156.296 49.3787 157.712 49.4967 159.364C49.6147 161.016 49.0837 162.491 47.9037 163.789C46.7237 165.205 44.8357 166.031 42.2397 166.267C42.0037 168.863 40.9417 170.515 39.0537 171.223C37.2837 171.931 35.5727 171.754 33.9207 170.692C32.2687 169.748 31.5607 167.978 31.7967 165.382C31.6787 167.388 30.7937 168.863 29.1417 169.807C27.6077 170.869 25.6607 171.282 23.3007 171.046C20.9407 170.928 18.5807 169.984 16.2207 168.214C13.8607 166.444 11.8547 163.789 10.2027 160.249C8.66867 156.709 7.84267 152.107 7.72467 146.443ZM66.3117 102.547C65.2497 102.429 64.4827 101.603 64.0107 100.069C63.5387 98.417 63.3027 96.529 63.3027 94.405C63.4207 92.281 63.7157 90.334 64.1877 88.564C64.7777 86.676 65.5447 85.378 66.4887 84.67C65.4267 84.67 64.1877 84.08 62.7717 82.9C61.3557 81.602 60.0577 80.068 58.8777 78.298C57.6977 76.528 56.9307 74.876 56.5767 73.342C55.7507 74.64 54.6297 75.348 53.2137 75.466C51.7977 75.466 50.6177 74.876 49.6737 73.696C49.4377 75.112 48.6707 76.469 47.3727 77.767C46.1927 78.947 44.9537 79.478 43.6557 79.36C44.7177 80.186 45.0127 81.189 44.5407 82.369C44.0687 83.549 42.9477 84.021 41.1777 83.785C42.4757 83.785 43.4787 84.552 44.1867 86.086C44.8947 87.502 45.3077 89.272 45.4257 91.396C45.6617 93.402 45.4847 95.29 44.8947 97.06C44.4227 98.83 43.6557 99.951 42.5937 100.423C43.7737 100.187 44.6587 100.6 45.2487 101.662C45.9567 102.724 46.1337 103.727 45.7797 104.671C46.9597 104.081 48.6117 103.845 50.7357 103.963C52.9777 103.963 55.4557 103.963 58.1697 103.963C60.8837 103.963 63.5977 103.491 66.3117 102.547ZM121.205 19.003C118.727 18.413 117.016 17.351 116.072 15.817C115.128 14.283 114.833 12.808 115.187 11.392C115.659 9.858 116.662 8.678 118.196 7.85199C119.73 7.026 121.795 6.967 124.391 7.675C124.391 5.905 125.217 4.548 126.869 3.604C128.521 2.542 130.586 1.83399 133.064 1.47999C135.542 1.126 138.02 1.126 140.498 1.47999C143.094 1.83399 145.218 2.542 146.87 3.604C148.522 4.548 149.348 5.905 149.348 7.675C151.826 7.32099 153.773 7.85199 155.189 9.268C156.605 10.566 157.49 12.277 157.844 14.401C158.198 16.407 157.844 18.295 156.782 20.065C155.838 21.835 154.186 22.897 151.826 23.251C152.416 24.667 152.003 26.083 150.587 27.499C149.289 28.797 147.519 29.918 145.277 30.862C143.153 31.688 141.088 32.101 139.082 32.101C137.194 31.983 136.014 31.216 135.542 29.8C135.542 31.688 134.834 33.045 133.418 33.871C132.002 34.697 130.35 34.815 128.462 34.225C126.574 33.517 124.922 31.983 123.506 29.623C122.09 27.145 121.323 23.605 121.205 19.003ZM120.32 131.221C118.432 131.221 116.957 130.336 115.895 128.566C114.833 126.796 114.066 124.613 113.594 122.017C113.24 119.421 113.24 116.825 113.594 114.229C114.066 111.633 114.833 109.509 115.895 107.857C116.957 106.087 118.432 105.202 120.32 105.202C117.96 105.202 116.19 104.258 115.01 102.37C113.83 100.364 113.24 98.122 113.24 95.644C113.24 93.166 113.83 90.983 115.01 89.095C116.19 87.089 117.96 86.086 120.32 86.086C118.314 86.086 116.721 85.201 115.541 83.431C114.361 81.661 113.535 79.478 113.063 76.882C112.709 74.286 112.709 71.69 113.063 69.094C113.535 66.498 114.361 64.374 115.541 62.722C116.721 60.952 118.314 60.067 120.32 60.067C118.196 60.067 116.603 59.477 115.541 58.297C114.597 56.999 114.066 55.583 113.948 54.049C113.948 52.397 114.479 50.981 115.541 49.801C116.603 48.621 118.196 48.031 120.32 48.031C120.32 45.907 121.028 44.373 122.444 43.429C123.978 42.367 125.689 41.895 127.577 42.013C129.583 42.013 131.294 42.544 132.71 43.606C134.126 44.668 134.834 46.261 134.834 48.385C134.834 46.615 135.483 45.317 136.781 44.491C138.079 43.665 139.613 43.252 141.383 43.252C143.153 43.252 144.687 43.665 145.985 44.491C147.401 45.317 148.109 46.615 148.109 48.385C149.879 46.969 151.413 46.556 152.711 47.146C154.127 47.736 154.894 48.739 155.012 50.155C155.248 51.571 154.481 52.987 152.711 54.403C154.835 54.403 156.369 55.406 157.313 57.412C158.375 59.418 158.906 61.719 158.906 64.315C158.906 66.911 158.375 69.212 157.313 71.218C156.369 73.106 154.835 74.05 152.711 74.05C154.599 74.05 156.015 75.053 156.959 77.059C157.903 79.065 158.375 81.366 158.375 83.962C158.375 86.558 157.903 88.859 156.959 90.865C156.015 92.871 154.599 93.874 152.711 93.874C154.127 93.874 155.248 94.818 156.074 96.706C157.018 98.476 157.608 100.777 157.844 103.609C158.198 106.323 158.198 109.037 157.844 111.751C157.608 114.465 157.018 116.766 156.074 118.654C155.248 120.424 154.127 121.309 152.711 121.309C155.307 121.781 156.9 122.961 157.49 124.849C158.08 126.619 157.785 128.33 156.605 129.982C155.425 131.516 153.537 132.047 150.941 131.575C150.941 134.525 150.351 136.472 149.171 137.416C147.991 138.478 146.811 138.478 145.631 137.416C144.451 136.472 143.861 134.525 143.861 131.575C143.861 134.053 142.681 135.941 140.321 137.239C138.079 138.537 135.365 139.127 132.179 139.009C129.111 139.009 126.397 138.36 124.037 137.062C121.677 135.764 120.438 133.817 120.32 131.221ZM202.635 131.929C202.045 133.699 200.924 134.879 199.272 135.469C197.738 135.941 196.086 135.882 194.316 135.292C192.664 134.702 191.307 133.758 190.245 132.46C189.301 131.044 189.124 129.451 189.714 127.681C188.652 128.625 187.236 128.684 185.466 127.858C183.696 127.032 181.867 125.734 179.979 123.964C178.209 122.194 176.616 120.247 175.2 118.123C173.902 115.881 173.017 113.816 172.545 111.928C172.191 110.04 172.545 108.683 173.607 107.857C170.421 108.329 168.12 107.857 166.704 106.441C165.406 104.907 165.17 103.255 165.996 101.485C166.822 99.597 168.828 98.417 172.014 97.945C170.244 97.945 168.887 97.296 167.943 95.998C167.117 94.7 166.645 93.225 166.527 91.573C166.527 89.803 166.94 88.269 167.766 86.971C168.71 85.555 170.067 84.847 171.837 84.847C169.949 84.493 168.651 83.431 167.943 81.661C167.353 79.891 167.235 78.003 167.589 75.997C168.061 73.873 168.887 72.103 170.067 70.687C171.365 69.271 172.958 68.74 174.846 69.094C172.84 67.796 171.719 66.262 171.483 64.492C171.247 62.722 171.542 61.188 172.368 59.89C173.312 58.474 174.61 57.589 176.262 57.235C178.032 56.763 179.92 57.176 181.926 58.474C180.864 56.94 180.569 55.465 181.041 54.049C181.513 52.515 182.398 51.335 183.696 50.509C184.994 49.565 186.41 49.152 187.944 49.27C189.478 49.388 190.776 50.214 191.838 51.748C191.012 49.27 191.071 47.441 192.015 46.261C192.959 44.963 194.139 44.491 195.555 44.845C197.089 45.199 198.328 46.615 199.272 49.093C198.918 47.205 199.213 45.73 200.157 44.668C201.101 43.606 202.281 42.957 203.697 42.721C205.231 42.367 206.647 42.544 207.945 43.252C209.243 43.96 210.069 45.199 210.423 46.969C210.423 45.199 211.249 43.901 212.901 43.075C214.671 42.131 216.677 41.659 218.919 41.659C221.161 41.659 223.108 42.131 224.76 43.075C226.53 43.901 227.415 45.199 227.415 46.969C227.887 44.491 229.008 42.78 230.778 41.836C232.666 40.892 234.613 40.656 236.619 41.128C238.625 41.482 240.218 42.485 241.398 44.137C242.696 45.671 243.109 47.736 242.637 50.332C243.463 48.68 244.643 47.795 246.177 47.677C247.829 47.559 249.363 47.913 250.779 48.739C252.313 49.447 253.375 50.509 253.965 51.925C254.673 53.341 254.555 54.875 253.611 56.527C255.499 55.229 257.387 54.993 259.275 55.819C261.163 56.527 262.697 57.766 263.877 59.536C265.175 61.306 265.883 63.253 266.001 65.377C266.119 67.383 265.234 68.976 263.346 70.156C265.352 70.038 267.004 70.746 268.302 72.28C269.718 73.814 270.721 75.82 271.311 78.298C272.019 80.658 272.314 83.136 272.196 85.732C272.078 88.21 271.488 90.334 270.426 92.104C269.482 93.874 268.007 94.877 266.001 95.113C268.479 95.585 270.131 96.824 270.957 98.83C271.783 100.718 271.96 102.842 271.488 105.202C271.134 107.444 270.131 109.332 268.479 110.866C266.945 112.4 264.998 112.931 262.638 112.459C264.408 113.639 265.352 115.055 265.47 116.707C265.706 118.241 265.352 119.657 264.408 120.955C263.464 122.253 262.225 123.138 260.691 123.61C259.157 123.964 257.505 123.551 255.735 122.371C256.797 124.023 257.092 125.616 256.62 127.15C256.148 128.566 255.204 129.687 253.788 130.513C252.49 131.339 251.015 131.693 249.363 131.575C247.829 131.457 246.59 130.572 245.646 128.92C246.354 131.162 246 132.932 244.584 134.23C243.168 135.528 241.516 136.059 239.628 135.823C237.858 135.469 236.619 134.112 235.911 131.752C236.383 134.584 235.852 136.531 234.318 137.593C232.784 138.773 231.073 139.009 229.185 138.301C227.415 137.593 226.353 135.882 225.999 133.168C226.235 138.242 224.465 140.779 220.689 140.779C216.913 140.779 210.895 137.829 202.635 131.929ZM230.601 104.14C229.303 104.022 228.359 103.078 227.769 101.308C227.297 99.538 227.061 97.473 227.061 95.113C227.179 92.635 227.533 90.452 228.123 88.564C228.713 86.676 229.598 85.555 230.778 85.201C229.598 85.201 228.418 84.375 227.238 82.723C226.176 81.071 225.291 79.183 224.583 77.059C223.993 74.817 223.757 72.87 223.875 71.218C222.813 72.162 221.515 72.516 219.981 72.28C218.447 72.044 217.267 71.277 216.441 69.979C216.323 70.923 215.969 71.513 215.379 71.749C214.789 71.985 214.14 71.867 213.432 71.395C213.786 73.047 213.668 74.994 213.078 77.236C212.606 79.36 211.839 81.248 210.777 82.9C209.715 84.552 208.535 85.378 207.237 85.378C208.653 85.732 209.538 86.735 209.892 88.387C210.364 90.039 210.305 91.691 209.715 93.343C209.125 94.877 208.063 95.644 206.529 95.644C207.827 95.408 208.948 96.116 209.892 97.768C210.954 99.302 211.662 101.131 212.016 103.255C212.488 105.379 212.547 107.208 212.193 108.742C213.845 107.798 216.323 107.267 219.627 107.149C222.931 107.031 226.589 106.028 230.601 104.14Z" fill="currentColor"/>
</svg>
